<svg xmlns="http://www.w3.org/2000/svg" viewBox="0 0 240 240" role="img" aria-labelledby="title desc">
  <title id="title">Papel</title>
  <desc id="desc">Folha de papel estilizada para o jogo pedra papel tesoura.</desc>
  <defs>
    <linearGradient id="paperBody" x1="71" x2="171" y1="33" y2="210" gradientUnits="userSpaceOnUse">
      <stop offset="0" stop-color="#ffffff"/>
      <stop offset=".65" stop-color="#dcecff"/>
      <stop offset="1" stop-color="#a7bfd8"/>
    </linearGradient>
    <linearGradient id="fold" x1="153" x2="192" y1="41" y2="82" gradientUnits="userSpaceOnUse">
      <stop offset="0" stop-color="#8edff7"/>
      <stop offset="1" stop-color="#eef7ff"/>
    </linearGradient>
    <filter id="shadow" x="-20%" y="-20%" width="140%" height="150%">
      <feDropShadow dx="0" dy="16" stdDeviation="12" flood-color="#06101d" flood-opacity=".34"/>
    </filter>
  </defs>
  <path fill="#ffd166" opacity=".2" d="M31 124c0-51 42-92 93-92s92 41 92 92-41 92-92 92-93-41-93-92Z"/>
  <path
    filter="url(#shadow)"
    fill="url(#paperBody)"
    d="M67 35h88l44 44v125c0 10-8 18-18 18H67c-10 0-18-8-18-18V53c0-10 8-18 18-18Z"
  />
  <path fill="url(#fold)" d="M155 35v34c0 8 6 14 14 14h30l-44-48Z"/>
  <path fill="#41e5d2" opacity=".56" d="M78 101h83a8 8 0 0 1 0 16H78a8 8 0 0 1 0-16Zm0 36h90a8 8 0 0 1 0 16H78a8 8 0 0 1 0-16Zm0 36h64a8 8 0 0 1 0 16H78a8 8 0 0 1 0-16Z"/>
  <path fill="#ff6b6b" opacity=".82" d="M72 63h41a9 9 0 0 1 0 18H72a9 9 0 0 1 0-18Z"/>
</svg>
